<svg id="Layer_1" data-name="Layer 1" xmlns="http://www.w3.org/2000/svg" viewBox="0 0 5525 1261"><defs><style>.cls-1{fill:none;stroke:#000;stroke-miterlimit:10;opacity:0;}</style></defs><polygon points="3347.31 170.16 3128.57 170.16 3126.28 170.16 2976.28 397.22 2976.28 0 2806.11 0 2806.11 717.57 2976.28 717.57 2976.28 463.1 3151 717.57 3371.47 717.57 3128.95 430.78 3347.31 170.16"/><path d="M2529.47,157.85C2339.17,157.85,2253,311.22,2253,450c0,171.24,106.31,278.7,292.16,278.7,73.88,0,142.14-11.15,198.11-33.59l-22.4-115.27c-45.92,14.53-92.91,22.36-151.08,22.36-79.49,0-148.9-33.5-154.5-104.06h352.63a405.67,405.67,0,0,0,5.59-67.17C2773.53,295.52,2706.36,157.85,2529.47,157.85ZM2414.2,381.74c4.46-45.91,33.57-110.79,105.21-110.79,78.36,0,96.29,69.39,96.29,110.79Z"/><path d="M1948.1,157.85c-42.36,0-81.17,6.72-115.86,19.18V0H1656V462.48c6.75,167.84,127.71,267.37,283.21,267.37C2085.79,729.85,2228,638,2228,437.68,2228,273.17,2116.05,157.85,1948.1,157.85Zm-4.47,450c-67.85,0-106.51-61.36-111.39-146V425.43c4.27-74.64,35.72-146.7,111.39-146.7,77.23,0,108.59,82.86,108.59,164.55C2052.22,541.82,2009.68,607.84,1943.63,607.84Z"/><path d="M3589.19,157.85C3413.45,157.85,3297,271,3297,447.77s123.13,282.08,283.13,282.08C3726.81,729.85,3869,638,3869,437.68,3869,273.17,3757.1,157.85,3589.19,157.85Zm-4.5,450c-72.73,0-111.94-70.48-111.94-164.56,0-80.6,30.2-164.55,111.94-164.55,77.26,0,108.55,82.86,108.55,164.55C3693.24,541.82,3650.72,607.84,3584.69,607.84Z"/><polygon points="1655.97 1089.19 1655.97 1261.04 3806.48 958.81 3806.48 786.95 1655.97 1089.19"/><rect class="cls-1" width="5525" height="1261"/></svg>